<svg width="793" height="914" viewBox="0 0 793 914" fill="none" xmlns="http://www.w3.org/2000/svg">
<path d="M73.8422 250.512L56.0677 260.755V281.27V632.73V653.245L73.8422 663.488L378.774 839.218L396.5 849.433L414.226 839.218L719.158 663.488L736.932 653.245V632.73V597.36V535.928L683.707 566.602L653.02 584.286L635.246 594.53V594.531L396.5 732.118L157.754 594.531V319.469L396.5 181.881L635.246 319.469V453.804L614.678 465.657V351.724V331.209L596.904 320.966L414.226 215.69L396.5 205.475L378.774 215.69L196.096 320.966L178.322 331.209V351.724V562.276V582.791L196.096 593.034L378.774 698.31L396.5 708.525L414.226 698.31L437.881 684.677L468.092 667.267L468.092 667.266L596.904 593.032L614.678 582.789V582.783L635.246 570.93V570.936L688.471 540.263L719.158 522.578L736.932 512.335V512.329L757.5 500.476V664.985L396.5 873.027L35.5 664.985V249.015L396.5 40.9731L757.5 249.015V383.35L736.932 395.203V281.27V260.755L719.158 250.512L414.226 74.7817L396.5 64.5665L378.774 74.7817L73.8422 250.512Z" fill="black" stroke="black" stroke-width="71"/>
</svg>
